<svg version="1.1" id="insta" viewBox="0 0 200 200">
	<g>
		<path class="st0" d="M175.9,180.7H25.3c-3.2,0-6-2.8-6-6v-94h25.3c-3.5,4.7-4.6,13.4-4.8,19.3c0.2,33.2,27.5,60.4,61.4,60.2
			c33.2,0.2,60.5-27.1,60.2-60.2c0.3-5.8-0.5-14.5-4.8-19.3h25.3v94C181.9,177.9,179.1,180.7,175.9,180.7 M100,61.4
			c21.3,0,38.6,17.3,38.6,38.6s-17.3,38.6-38.6,38.6S61.4,121.3,61.4,100S78.7,61.4,100,61.4 M149.4,25.3h19.3c3.2,0,6,2.8,6,6v19.3
			c0,3.2-2.8,6-6,6h-19.3c-3.2,0-6-2.8-6-6V31.3C143.4,28.1,146.2,25.3,149.4,25.3 M175.9,0H24.1C10.6,0,0,10.6,0,24.1v151.8
			C0,189.4,10.6,200,24.1,200h151.8c13.5,0,24.1-10.6,24.1-24.1V24.1C200,10.6,189.4,0,175.9,0"/>
	</g>
</svg>