<svg xmlns="http://www.w3.org/2000/svg" width="200" height="200" viewBox="0 0 200 200">
  <path fill="#0B0B0A" d="M175.903614,180.722892 L25.3012048,180.722892 C22.0797034,180.722892 19.2771084,177.922892 19.2771084,174.698795 L19.2771084,80.7228916 L44.5783133,80.7228916 C41.0410102,85.4103916 39.9399907,94.1541416 39.7590361,100 C39.9399907,133.172892 67.2590361,160.404142 101.204819,160.240964 C134.414968,160.404142 161.734013,133.172892 161.445783,100 C161.734013,94.1541416 160.945783,85.5416416 156.626506,80.7228916 L181.927711,80.7228916 L181.927711,174.698795 C181.927711,177.922892 179.125116,180.722892 175.903614,180.722892 M100,61.4457831 C121.293005,61.4457831 138.554217,78.7086779 138.554217,100 C138.554217,121.291322 121.293005,138.554217 100,138.554217 C78.706995,138.554217 61.4457831,121.291322 61.4457831,100 C61.4457831,78.7086779 78.706995,61.4457831 100,61.4457831 M149.39759,25.3012048 L168.674699,25.3012048 C171.892048,25.3012048 174.698795,28.1079518 174.698795,31.3253012 L174.698795,50.6024096 C174.698795,53.819759 171.892048,56.626506 168.674699,56.626506 L149.39759,56.626506 C146.180241,56.626506 143.373494,53.819759 143.373494,50.6024096 L143.373494,31.3253012 C143.373494,28.1079518 146.180241,25.3012048 149.39759,25.3012048 M175.903614,0 L24.0963855,0 C10.64375,0 0,10.61875 0,24.0963855 L0,175.903614 C0,189.38125 10.64375,200 24.0963855,200 L175.903614,200 C189.35625,200 200,189.38125 200,175.903614 L200,24.0963855 C200,10.61875 189.35625,0 175.903614,0"/>
</svg>
