<?xml version="1.0" encoding="utf-8"?>
<!-- Generator: Adobe Illustrator 24.0.0, SVG Export Plug-In . SVG Version: 6.00 Build 0)  -->
<svg version="1.1" id="Warstwa_1" xmlns="http://www.w3.org/2000/svg" xmlns:xlink="http://www.w3.org/1999/xlink" x="0px" y="0px"
	 viewBox="0 0 24 50" style="enable-background:new 0 0 24 50;" xml:space="preserve">
<style type="text/css">
	.st0{fill:#444444;}
</style>
<path class="st0" d="M6.9,9c0.7,0,1.3,0.1,1.9,0.2c0.6,0.1,1.1,0.3,1.5,0.6s0.7,0.6,1,1.1c0.2,0.5,0.3,1.1,0.3,1.7
	c0,0.7-0.2,1.4-0.5,1.9s-0.8,0.9-1.5,1.2c0.9,0.3,1.6,0.7,2,1.4s0.7,1.5,0.7,2.4c0,0.8-0.1,1.4-0.4,1.9c-0.3,0.5-0.7,1-1.2,1.4
	S9.6,23.4,9,23.6c-0.6,0.2-1.3,0.3-1.9,0.3H0V9H6.9L6.9,9z M17,21.2c0.4,0.4,1,0.6,1.9,0.6c0.6,0,1.1-0.1,1.5-0.5
	c0.4-0.3,0.7-0.6,0.8-0.9h2.6c-0.4,1.3-1,2.2-1.9,2.8C21,23.7,20,24,18.8,24c-0.8,0-1.6-0.1-2.3-0.4c-0.7-0.3-1.2-0.6-1.7-1.1
	s-0.8-1.1-1.1-1.8c-0.3-0.7-0.4-1.5-0.4-2.3s0.1-1.5,0.4-2.2c0.3-0.7,0.6-1.3,1.1-1.8s1.1-0.9,1.7-1.2c0.7-0.3,1.4-0.4,2.2-0.4
	c0.9,0,1.7,0.2,2.4,0.5c0.7,0.3,1.2,0.8,1.7,1.4c0.4,0.6,0.8,1.3,0.9,2c0.2,0.8,0.3,1.5,0.2,2.4h-7.7C16.3,19.9,16.5,20.7,17,21.2
	L17,21.2z M6.7,21.2c0.3,0,0.6,0,0.9-0.1s0.6-0.2,0.8-0.3c0.2-0.1,0.4-0.3,0.5-0.6c0.1-0.2,0.2-0.6,0.2-1c0-0.8-0.2-1.3-0.6-1.6
	c-0.4-0.3-1-0.5-1.7-0.5H3.2v4L6.7,21.2L6.7,21.2L6.7,21.2z M20.3,15.6C20,15.2,19.4,15,18.6,15c-0.5,0-0.9,0.1-1.2,0.2
	c-0.3,0.1-0.5,0.4-0.7,0.6c-0.2,0.2-0.3,0.5-0.4,0.7c-0.1,0.3-0.1,0.5-0.1,0.7H21C20.9,16.5,20.6,16,20.3,15.6L20.3,15.6L20.3,15.6z
	 M6.5,14.9c0.6,0,1-0.1,1.4-0.4c0.4-0.3,0.5-0.7,0.5-1.3c0-0.3-0.1-0.6-0.2-0.9c0-0.2-0.2-0.3-0.4-0.5c-0.2-0.1-0.4-0.2-0.7-0.3
	c-0.3-0.1-0.6-0.1-0.8-0.1h-3v3.4L6.5,14.9L6.5,14.9z M15.6,10h6v1.4h-6V10L15.6,10L15.6,10z"/>
<path class="st0" d="M23.9,32c-0.1-1.3-0.3-2.1-0.6-2.9c-0.3-0.8-0.7-1.5-1.4-2.1c-0.7-0.7-1.3-1.1-2.1-1.4
	c-0.8-0.3-1.6-0.5-2.9-0.6c-1.2,0-1.6,0-4.9,0s-3.7,0-4.9,0.1c-1.3,0.1-2.2,0.3-2.9,0.6C3.4,25.9,2.7,26.3,2,27s-1.1,1.3-1.4,2.1
	C0.3,29.9,0.1,30.7,0,32c0,1.3,0,1.7,0,5s0,3.7,0.1,5s0.3,2.2,0.6,2.9C0.9,45.7,1.4,46.3,2,47c0.7,0.7,1.3,1.1,2.1,1.4
	C4.9,48.7,5.7,48.9,7,49c1.3,0,1.7,0,5,0s3.7,0,5-0.1s2.1-0.3,2.9-0.6s1.5-0.7,2.1-1.4c0.7-0.7,1.1-1.3,1.4-2.1s0.5-1.6,0.6-2.9
	c0-1.2,0-1.6,0-4.9S24,33.3,23.9,32z M12,33c2.2,0,4,1.8,4,4s-1.8,4-4,4s-4-1.8-4-4S9.8,33,12,33z M16.7,30.5c0-1,0.8-1.8,1.8-1.8
	s1.8,0.8,1.8,1.8s-0.8,1.8-1.8,1.8C17.4,32.3,16.7,31.5,16.7,30.5z M21.8,41.8c-0.1,1.2-0.3,1.8-0.4,2.2c-0.2,0.6-0.5,1-0.9,1.4
	s-0.8,0.7-1.4,0.9c-0.4,0.2-1.1,0.4-2.2,0.4c-1.3,0.1-1.6,0.1-4.9,0.1s-3.6,0-4.9-0.1c-1.2-0.1-1.8-0.3-2.2-0.4
	c-0.6-0.2-1-0.5-1.4-0.9S2.8,44.6,2.6,44c-0.2-0.4-0.3-1.1-0.4-2.2c0-1.3-0.1-1.7-0.1-4.8c0-0.8,0-1.5,0-2h4.1
	c-0.2,0.6-0.3,1.3-0.3,2c0,3.4,2.8,6.2,6.2,6.2s6.2-2.8,6.2-6.2c0-0.7-0.1-1.4-0.3-2h4c0,0.5,0,1.2,0,2
	C21.8,40.2,21.8,40.6,21.8,41.8z"/>
</svg>
