<?xml version="1.0" encoding="utf-8"?>
<!-- Generator: Adobe Illustrator 19.0.0, SVG Export Plug-In . SVG Version: 6.00 Build 0)  -->
<svg version="1.1" id="Layer_1" xmlns="http://www.w3.org/2000/svg" xmlns:xlink="http://www.w3.org/1999/xlink" x="0px" y="0px"
	 viewBox="0 0 374.2 39.7" style="enable-background:new 0 0 374.2 39.7;" xml:space="preserve">
<style type="text/css">
	.st0{clip-path:url(#XMLID_26_);}
</style>
<g id="XMLID_1_">
	<defs>
		<rect id="XMLID_24_" x="2" y="0" width="371.6" height="37.8"/>
	</defs>
	<clipPath id="XMLID_26_">
		<use xlink:href="#XMLID_24_"  style="overflow:visible;"/>
	</clipPath>
	<path id="XMLID_2_" class="st0" d="M363,11.1c-1.4,0-2.3-1-2.3-2.7c0-1.7,0.9-2.7,2.3-2.7s2.3,1.1,2.3,2.7c0,0.8-0.2,1.3-0.4,1.8
		C364.4,10.8,363.8,11.1,363,11.1 M363,0.5c-4.7,0-8.2,3-8.2,7.6c0,3.9,2.6,6.7,6.2,7.4l-5.4,7.7h6.9l6.9-10.1c1-1.6,1.7-3,1.7-5
		C371.2,3.6,367.7,0.5,363,0.5 M345.1,0.5c-4.8,0-7.3,2.6-7.4,6.8l5.8,0.3c0-1.4,0.6-2,1.6-2c1,0,1.5,0.6,1.5,1.8
		c0,1.2-0.8,1.9-1.9,1.9h-2.3v4.8h2.4c1.2,0,2.1,0.7,2.1,2.1c0,1.5-0.6,2.2-1.8,2.2c-1.2,0-1.8-0.8-1.8-2.2l-5.8,0.3
		c0,4.3,2.7,7,7.6,7c4.4,0,7.6-2.6,7.6-7.2c0-2.3-1-4-2.2-4.7c1.1-1,1.9-2,1.9-4.4C352.3,3.2,349.7,0.5,345.1,0.5 M320.7,18
		c3.5,0,5.9,2.4,5.9,6.3v1.1c0,4-2.4,6.3-5.9,6.3c-3.5,0-6-2.4-6-6.9S317.2,18,320.7,18 M319.5,12c-7,0-12,5.1-12,12.9
		c0,7.8,4.9,12.9,12,12.9c3.5,0,6.1-1.4,7.4-3.1v2.5h6.6V12.5h-6.6v2.6C325.6,13.3,323,12,319.5,12 M293.8,12c-3.4,0-5.6,1.3-6.7,3
		v-2.5h-6.6v24.8h7V23.5c0-3,1.8-5,4.6-5c2.7,0,4.4,1.8,4.4,4.9v13.8h7V22.1C303.4,15.7,299.5,12,293.8,12 M262.2,18
		c3.5,0,5.9,2.4,5.9,6.3v1.1c0,4-2.4,6.3-5.9,6.3c-3.5,0-6-2.4-6-6.9S258.7,18,262.2,18 M261,12c-7,0-12,5.1-12,12.9
		c0,7.8,4.9,12.9,12,12.9c3.5,0,6.1-1.4,7.4-3.1v2.5h6.6V12.5h-6.6v2.6C267.1,13.3,264.5,12,261,12 M231.3,21.3V0h-7v37.3h7v-6.6
		l2.2-2.4l6.5,9h8.5l-10-14.2l9.4-10.6h-8.5L231.3,21.3z M220.3,12.2c-3.8,0-5.8,1.4-6.8,3.1v-2.8h-6.8v24.8h7V24.7
		c0-3.4,2.5-5.7,6.6-5.7V12.2z M182.7,7.4c6.5,0,11,4.5,11,11.9c0,7.4-4.6,11.9-11,11.9c-6.6,0-11.1-4.5-11.1-11.9
		C171.6,11.9,176.1,7.4,182.7,7.4 M182.7,0.9c-10.8,0-18.7,7.2-18.7,18.5s7.9,18.5,18.7,18.5c10.7,0,18.6-7.2,18.6-18.5
		S193.4,0.9,182.7,0.9 M136.5,18c3.6,0,6.1,2.5,6.1,6.9c0,4.3-2.5,6.9-6.1,6.9c-3.6,0-6.1-2.5-6.1-6.9C130.4,20.5,132.9,18,136.5,18
		 M136.5,12c-7.6,0-13.2,5.1-13.2,12.9c0,7.8,5.6,12.9,13.2,12.9s13.2-5.1,13.2-12.9C149.7,17.1,144.1,12,136.5,12 M119.2,12.5h-7
		v24.8h7V12.5z M115.7,0.1c-2.3,0-4.2,1.9-4.2,4.2c0,2.3,1.8,4.2,4.2,4.2c2.4,0,4.2-1.9,4.2-4.2C119.9,2,118,0.1,115.7,0.1 M92.9,18
		c3.5,0,5.9,2.4,5.9,6.3v1.1c0,4-2.4,6.3-5.9,6.3c-3.5,0-6-2.4-6-6.9S89.4,18,92.9,18 M105.7,37.3V0h-7v14.6c-1.3-1.5-3.8-2.6-7-2.6
		c-7,0-12,5.1-12,12.9c0,7.8,4.9,12.9,12,12.9c3.5,0,6.1-1.4,7.4-3.1v2.5H105.7z M75.5,37.3V12.5h-7v14c0,2.8-1.5,4.8-4.2,4.8
		c-2.7,0-4-1.7-4-4.7V12.5h-7v15.6c0,6,3.5,9.7,9.2,9.7c3.5,0,5.5-1.5,6.4-3v2.5H75.5z M43.2,18.5h5.9v-6h-5.8l0-8.2h-7l0,8.2h-4.6
		v6h4.5l0,10.9c0,5.8,3.6,8.4,9,8.4c1.9,0,2.9-0.1,3.9-0.3v-6.2c-0.5,0.1-1.2,0.2-2.2,0.2c-2,0-3.7-1-3.7-3.7L43.2,18.5z M15.6,0.9
		C7,0.9,2.8,6,2.8,11.9c0,7,5.4,8.8,11.9,10.4c4.8,1.2,7.4,2.2,7.4,4.9c0,2.9-2.4,4.2-5.7,4.2c-3.9,0-6.7-2.2-6.9-5.5L2,26.3
		c0.1,7.4,6.1,11.5,14.4,11.5c7.2,0,13.2-3.4,13.2-11c0-6.4-4.8-8.6-12.2-10.5c-4.9-1.2-7-1.9-7-4.7c0-2.5,1.9-4.3,5.3-4.3
		s5.5,2,5.6,5l7.6-0.4C28.7,5,23.4,0.9,15.6,0.9"/>
</g>
</svg>
