<?xml version="1.0" encoding="utf-8"?>
<!-- Generator: Adobe Illustrator 23.0.6, SVG Export Plug-In . SVG Version: 6.00 Build 0)  -->
<svg version="1.1" id="Warstwa_1" xmlns="http://www.w3.org/2000/svg" xmlns:xlink="http://www.w3.org/1999/xlink" x="0px" y="0px"
	 viewBox="0 0 24 50" style="enable-background:new 0 0 24 50;" xml:space="preserve">
<path d="M6.9,9c0.7,0,1.3,0.1,1.9,0.2c0.6,0.1,1.1,0.3,1.5,0.6c0.4,0.3,0.7,0.6,1,1.1c0.2,0.5,0.3,1.1,0.3,1.7
	c0,0.7-0.2,1.4-0.5,1.9s-0.8,0.9-1.5,1.2c0.9,0.3,1.6,0.7,2,1.4c0.4,0.7,0.7,1.5,0.7,2.4c0,0.8-0.1,1.4-0.4,1.9
	c-0.3,0.5-0.7,1-1.2,1.4c-0.5,0.4-1.1,0.6-1.7,0.8c-0.6,0.2-1.3,0.3-1.9,0.3H0V9L6.9,9C6.9,9,6.9,9,6.9,9z M17,21.2
	c0.4,0.4,1,0.6,1.9,0.6c0.6,0,1.1-0.1,1.5-0.5c0.4-0.3,0.7-0.6,0.8-0.9h2.6c-0.4,1.3-1,2.2-1.9,2.8C21,23.7,20,24,18.8,24
	c-0.8,0-1.6-0.1-2.3-0.4c-0.7-0.3-1.2-0.6-1.7-1.1c-0.5-0.5-0.8-1.1-1.1-1.8c-0.3-0.7-0.4-1.5-0.4-2.3c0-0.8,0.1-1.5,0.4-2.2
	c0.3-0.7,0.6-1.3,1.1-1.8c0.5-0.5,1.1-0.9,1.7-1.2c0.7-0.3,1.4-0.4,2.2-0.4c0.9,0,1.7,0.2,2.4,0.5c0.7,0.3,1.2,0.8,1.7,1.4
	c0.4,0.6,0.8,1.3,0.9,2c0.2,0.8,0.3,1.5,0.2,2.4h-7.7C16.3,19.9,16.5,20.7,17,21.2L17,21.2z M6.7,21.2c0.3,0,0.6,0,0.9-0.1
	s0.6-0.2,0.8-0.3c0.2-0.1,0.4-0.3,0.5-0.6c0.1-0.2,0.2-0.6,0.2-1c0-0.8-0.2-1.3-0.6-1.6c-0.4-0.3-1-0.5-1.7-0.5H3.2v4L6.7,21.2
	L6.7,21.2L6.7,21.2z M20.3,15.6C20,15.2,19.4,15,18.6,15c-0.5,0-0.9,0.1-1.2,0.2c-0.3,0.1-0.5,0.4-0.7,0.6c-0.2,0.2-0.3,0.5-0.4,0.7
	c-0.1,0.3-0.1,0.5-0.1,0.7H21C20.9,16.5,20.6,16,20.3,15.6L20.3,15.6L20.3,15.6z M6.5,14.9c0.6,0,1-0.1,1.4-0.4
	c0.4-0.3,0.5-0.7,0.5-1.3c0-0.3-0.1-0.6-0.2-0.9C8.2,12.1,8,12,7.8,11.8c-0.2-0.1-0.4-0.2-0.7-0.3c-0.3-0.1-0.6-0.1-0.8-0.1h-3v3.4
	L6.5,14.9L6.5,14.9z M15.6,10h6v1.4h-6L15.6,10L15.6,10L15.6,10z"/>
<path d="M23.9,32c-0.1-1.3-0.3-2.1-0.6-2.9c-0.3-0.8-0.7-1.5-1.4-2.1c-0.7-0.7-1.3-1.1-2.1-1.4c-0.8-0.3-1.6-0.5-2.9-0.6
	C15.7,25,15.3,25,12,25s-3.7,0-4.9,0.1c-1.3,0.1-2.2,0.3-2.9,0.6C3.4,25.9,2.7,26.3,2,27s-1.1,1.3-1.4,2.1c-0.3,0.8-0.5,1.6-0.6,2.9
	C0,33.3,0,33.7,0,37s0,3.7,0.1,5c0.1,1.3,0.3,2.2,0.6,2.9C0.9,45.7,1.4,46.3,2,47c0.7,0.7,1.3,1.1,2.1,1.4c0.8,0.3,1.6,0.5,2.9,0.6
	C8.3,49,8.7,49,12,49s3.7,0,5-0.1c1.3-0.1,2.1-0.3,2.9-0.6c0.8-0.3,1.5-0.7,2.1-1.4c0.7-0.7,1.1-1.3,1.4-2.1
	c0.3-0.8,0.5-1.6,0.6-2.9C24,40.7,24,40.3,24,37S24,33.3,23.9,32z M12,33c2.2,0,4,1.8,4,4s-1.8,4-4,4s-4-1.8-4-4S9.8,33,12,33z
	 M16.7,30.5c0-1,0.8-1.8,1.8-1.8s1.8,0.8,1.8,1.8s-0.8,1.8-1.8,1.8C17.4,32.3,16.7,31.5,16.7,30.5z M21.8,41.8
	c-0.1,1.2-0.3,1.8-0.4,2.2c-0.2,0.6-0.5,1-0.9,1.4c-0.4,0.4-0.8,0.7-1.4,0.9c-0.4,0.2-1.1,0.4-2.2,0.4c-1.3,0.1-1.6,0.1-4.9,0.1
	s-3.6,0-4.9-0.1c-1.2-0.1-1.8-0.3-2.2-0.4c-0.6-0.2-1-0.5-1.4-0.9c-0.4-0.4-0.7-0.8-0.9-1.4c-0.2-0.4-0.3-1.1-0.4-2.2
	c0-1.3-0.1-1.7-0.1-4.8c0-0.8,0-1.5,0-2h4.1c-0.2,0.6-0.3,1.3-0.3,2c0,3.4,2.8,6.2,6.2,6.2s6.2-2.8,6.2-6.2c0-0.7-0.1-1.4-0.3-2h4
	c0,0.5,0,1.2,0,2C21.8,40.2,21.8,40.6,21.8,41.8z"/>
</svg>
